<?xml version="1.0" encoding="utf-8" standalone="no"?>
<!DOCTYPE svg PUBLIC "-//W3C//DTD SVG 1.1//EN"
  "http://www.w3.org/Graphics/SVG/1.1/DTD/svg11.dtd">
<svg xmlns:xlink="http://www.w3.org/1999/xlink" width="1440pt" height="720pt" viewBox="0 0 1440 720" xmlns="http://www.w3.org/2000/svg" version="1.1">
 <metadata>
  <rdf:RDF xmlns:dc="http://purl.org/dc/elements/1.1/" xmlns:cc="http://creativecommons.org/ns#" xmlns:rdf="http://www.w3.org/1999/02/22-rdf-syntax-ns#">
   <cc:Work>
    <dc:type rdf:resource="http://purl.org/dc/dcmitype/StillImage"/>
    <dc:date>2024-05-21T01:34:13.093556</dc:date>
    <dc:format>image/svg+xml</dc:format>
    <dc:creator>
     <cc:Agent>
      <dc:title>Matplotlib v3.6.3, https://matplotlib.org/</dc:title>
     </cc:Agent>
    </dc:creator>
   </cc:Work>
  </rdf:RDF>
 </metadata>
 <defs>
  <style type="text/css">*{stroke-linejoin: round; stroke-linecap: butt}</style>
 </defs>
 <g id="figure_1">
  <g id="patch_1">
   <path d="M 0 720 
L 1440 720 
L 1440 0 
L 0 0 
z
" style="fill: #ffffff"/>
  </g>
  <g id="axes_1">
   <g id="patch_2">
    <path d="M 180 640.8 
L 1296 640.8 
L 1296 86.4 
L 180 86.4 
z
" style="fill: #ffffff"/>
   </g>
   <g id="matplotlib.axis_1">
    <g id="xtick_1">
     <g id="line2d_1">
      <path d="M 230.727273 640.8 
L 230.727273 86.4 
" clip-path="url(#p4609d179d8)" style="fill: none; stroke: #b0b0b0; stroke-width: 0.8; stroke-linecap: square"/>
     </g>
     <g id="line2d_2">
      <defs>
       <path id="m2373d612d7" d="M 0 0 
L 0 3.5 
" style="stroke: #000000; stroke-width: 0.8"/>
      </defs>
      <g>
       <use xlink:href="#m2373d612d7" x="230.727273" y="640.8" style="stroke: #000000; stroke-width: 0.8"/>
      </g>
     </g>
     <g id="text_1">
      <!-- 500 -->
      <g transform="translate(221.183523 655.398438) scale(0.1 -0.1)">
       <defs>
        <path id="DejaVuSans-35" d="M 691 4666 
L 3169 4666 
L 3169 4134 
L 1269 4134 
L 1269 2991 
Q 1406 3038 1543 3061 
Q 1681 3084 1819 3084 
Q 2600 3084 3056 2656 
Q 3513 2228 3513 1497 
Q 3513 744 3044 326 
Q 2575 -91 1722 -91 
Q 1428 -91 1123 -41 
Q 819 9 494 109 
L 494 744 
Q 775 591 1075 516 
Q 1375 441 1709 441 
Q 2250 441 2565 725 
Q 2881 1009 2881 1497 
Q 2881 1984 2565 2268 
Q 2250 2553 1709 2553 
Q 1456 2553 1204 2497 
Q 953 2441 691 2322 
L 691 4666 
z
" transform="scale(0.015625)"/>
        <path id="DejaVuSans-30" d="M 2034 4250 
Q 1547 4250 1301 3770 
Q 1056 3291 1056 2328 
Q 1056 1369 1301 889 
Q 1547 409 2034 409 
Q 2525 409 2770 889 
Q 3016 1369 3016 2328 
Q 3016 3291 2770 3770 
Q 2525 4250 2034 4250 
z
M 2034 4750 
Q 2819 4750 3233 4129 
Q 3647 3509 3647 2328 
Q 3647 1150 3233 529 
Q 2819 -91 2034 -91 
Q 1250 -91 836 529 
Q 422 1150 422 2328 
Q 422 3509 836 4129 
Q 1250 4750 2034 4750 
z
" transform="scale(0.015625)"/>
       </defs>
       <use xlink:href="#DejaVuSans-35"/>
       <use xlink:href="#DejaVuSans-30" x="63.623047"/>
       <use xlink:href="#DejaVuSans-30" x="127.246094"/>
      </g>
     </g>
    </g>
    <g id="xtick_2">
     <g id="line2d_3">
      <path d="M 300.695925 640.8 
L 300.695925 86.4 
" clip-path="url(#p4609d179d8)" style="fill: none; stroke: #b0b0b0; stroke-width: 0.8; stroke-linecap: square"/>
     </g>
     <g id="line2d_4">
      <g>
       <use xlink:href="#m2373d612d7" x="300.695925" y="640.8" style="stroke: #000000; stroke-width: 0.8"/>
      </g>
     </g>
     <g id="text_2">
      <!-- 1500 -->
      <g transform="translate(287.970925 655.398438) scale(0.1 -0.1)">
       <defs>
        <path id="DejaVuSans-31" d="M 794 531 
L 1825 531 
L 1825 4091 
L 703 3866 
L 703 4441 
L 1819 4666 
L 2450 4666 
L 2450 531 
L 3481 531 
L 3481 0 
L 794 0 
L 794 531 
z
" transform="scale(0.015625)"/>
       </defs>
       <use xlink:href="#DejaVuSans-31"/>
       <use xlink:href="#DejaVuSans-35" x="63.623047"/>
       <use xlink:href="#DejaVuSans-30" x="127.246094"/>
       <use xlink:href="#DejaVuSans-30" x="190.869141"/>
      </g>
     </g>
    </g>
    <g id="xtick_3">
     <g id="line2d_5">
      <path d="M 370.664577 640.8 
L 370.664577 86.4 
" clip-path="url(#p4609d179d8)" style="fill: none; stroke: #b0b0b0; stroke-width: 0.8; stroke-linecap: square"/>
     </g>
     <g id="line2d_6">
      <g>
       <use xlink:href="#m2373d612d7" x="370.664577" y="640.8" style="stroke: #000000; stroke-width: 0.8"/>
      </g>
     </g>
     <g id="text_3">
      <!-- 2500 -->
      <g transform="translate(357.939577 655.398438) scale(0.1 -0.1)">
       <defs>
        <path id="DejaVuSans-32" d="M 1228 531 
L 3431 531 
L 3431 0 
L 469 0 
L 469 531 
Q 828 903 1448 1529 
Q 2069 2156 2228 2338 
Q 2531 2678 2651 2914 
Q 2772 3150 2772 3378 
Q 2772 3750 2511 3984 
Q 2250 4219 1831 4219 
Q 1534 4219 1204 4116 
Q 875 4013 500 3803 
L 500 4441 
Q 881 4594 1212 4672 
Q 1544 4750 1819 4750 
Q 2544 4750 2975 4387 
Q 3406 4025 3406 3419 
Q 3406 3131 3298 2873 
Q 3191 2616 2906 2266 
Q 2828 2175 2409 1742 
Q 1991 1309 1228 531 
z
" transform="scale(0.015625)"/>
       </defs>
       <use xlink:href="#DejaVuSans-32"/>
       <use xlink:href="#DejaVuSans-35" x="63.623047"/>
       <use xlink:href="#DejaVuSans-30" x="127.246094"/>
       <use xlink:href="#DejaVuSans-30" x="190.869141"/>
      </g>
     </g>
    </g>
    <g id="xtick_4">
     <g id="line2d_7">
      <path d="M 440.633229 640.8 
L 440.633229 86.4 
" clip-path="url(#p4609d179d8)" style="fill: none; stroke: #b0b0b0; stroke-width: 0.8; stroke-linecap: square"/>
     </g>
     <g id="line2d_8">
      <g>
       <use xlink:href="#m2373d612d7" x="440.633229" y="640.8" style="stroke: #000000; stroke-width: 0.8"/>
      </g>
     </g>
     <g id="text_4">
      <!-- 3500 -->
      <g transform="translate(427.908229 655.398438) scale(0.1 -0.1)">
       <defs>
        <path id="DejaVuSans-33" d="M 2597 2516 
Q 3050 2419 3304 2112 
Q 3559 1806 3559 1356 
Q 3559 666 3084 287 
Q 2609 -91 1734 -91 
Q 1441 -91 1130 -33 
Q 819 25 488 141 
L 488 750 
Q 750 597 1062 519 
Q 1375 441 1716 441 
Q 2309 441 2620 675 
Q 2931 909 2931 1356 
Q 2931 1769 2642 2001 
Q 2353 2234 1838 2234 
L 1294 2234 
L 1294 2753 
L 1863 2753 
Q 2328 2753 2575 2939 
Q 2822 3125 2822 3475 
Q 2822 3834 2567 4026 
Q 2313 4219 1838 4219 
Q 1578 4219 1281 4162 
Q 984 4106 628 3988 
L 628 4550 
Q 988 4650 1302 4700 
Q 1616 4750 1894 4750 
Q 2613 4750 3031 4423 
Q 3450 4097 3450 3541 
Q 3450 3153 3228 2886 
Q 3006 2619 2597 2516 
z
" transform="scale(0.015625)"/>
       </defs>
       <use xlink:href="#DejaVuSans-33"/>
       <use xlink:href="#DejaVuSans-35" x="63.623047"/>
       <use xlink:href="#DejaVuSans-30" x="127.246094"/>
       <use xlink:href="#DejaVuSans-30" x="190.869141"/>
      </g>
     </g>
    </g>
    <g id="xtick_5">
     <g id="line2d_9">
      <path d="M 510.601881 640.8 
L 510.601881 86.4 
" clip-path="url(#p4609d179d8)" style="fill: none; stroke: #b0b0b0; stroke-width: 0.8; stroke-linecap: square"/>
     </g>
     <g id="line2d_10">
      <g>
       <use xlink:href="#m2373d612d7" x="510.601881" y="640.8" style="stroke: #000000; stroke-width: 0.8"/>
      </g>
     </g>
     <g id="text_5">
      <!-- 4500 -->
      <g transform="translate(497.876881 655.398438) scale(0.1 -0.1)">
       <defs>
        <path id="DejaVuSans-34" d="M 2419 4116 
L 825 1625 
L 2419 1625 
L 2419 4116 
z
M 2253 4666 
L 3047 4666 
L 3047 1625 
L 3713 1625 
L 3713 1100 
L 3047 1100 
L 3047 0 
L 2419 0 
L 2419 1100 
L 313 1100 
L 313 1709 
L 2253 4666 
z
" transform="scale(0.015625)"/>
       </defs>
       <use xlink:href="#DejaVuSans-34"/>
       <use xlink:href="#DejaVuSans-35" x="63.623047"/>
       <use xlink:href="#DejaVuSans-30" x="127.246094"/>
       <use xlink:href="#DejaVuSans-30" x="190.869141"/>
      </g>
     </g>
    </g>
    <g id="xtick_6">
     <g id="line2d_11">
      <path d="M 580.570533 640.8 
L 580.570533 86.4 
" clip-path="url(#p4609d179d8)" style="fill: none; stroke: #b0b0b0; stroke-width: 0.8; stroke-linecap: square"/>
     </g>
     <g id="line2d_12">
      <g>
       <use xlink:href="#m2373d612d7" x="580.570533" y="640.8" style="stroke: #000000; stroke-width: 0.8"/>
      </g>
     </g>
     <g id="text_6">
      <!-- 5500 -->
      <g transform="translate(567.845533 655.398438) scale(0.1 -0.1)">
       <use xlink:href="#DejaVuSans-35"/>
       <use xlink:href="#DejaVuSans-35" x="63.623047"/>
       <use xlink:href="#DejaVuSans-30" x="127.246094"/>
       <use xlink:href="#DejaVuSans-30" x="190.869141"/>
      </g>
     </g>
    </g>
    <g id="xtick_7">
     <g id="line2d_13">
      <path d="M 650.539185 640.8 
L 650.539185 86.4 
" clip-path="url(#p4609d179d8)" style="fill: none; stroke: #b0b0b0; stroke-width: 0.8; stroke-linecap: square"/>
     </g>
     <g id="line2d_14">
      <g>
       <use xlink:href="#m2373d612d7" x="650.539185" y="640.8" style="stroke: #000000; stroke-width: 0.8"/>
      </g>
     </g>
     <g id="text_7">
      <!-- 6500 -->
      <g transform="translate(637.814185 655.398438) scale(0.1 -0.1)">
       <defs>
        <path id="DejaVuSans-36" d="M 2113 2584 
Q 1688 2584 1439 2293 
Q 1191 2003 1191 1497 
Q 1191 994 1439 701 
Q 1688 409 2113 409 
Q 2538 409 2786 701 
Q 3034 994 3034 1497 
Q 3034 2003 2786 2293 
Q 2538 2584 2113 2584 
z
M 3366 4563 
L 3366 3988 
Q 3128 4100 2886 4159 
Q 2644 4219 2406 4219 
Q 1781 4219 1451 3797 
Q 1122 3375 1075 2522 
Q 1259 2794 1537 2939 
Q 1816 3084 2150 3084 
Q 2853 3084 3261 2657 
Q 3669 2231 3669 1497 
Q 3669 778 3244 343 
Q 2819 -91 2113 -91 
Q 1303 -91 875 529 
Q 447 1150 447 2328 
Q 447 3434 972 4092 
Q 1497 4750 2381 4750 
Q 2619 4750 2861 4703 
Q 3103 4656 3366 4563 
z
" transform="scale(0.015625)"/>
       </defs>
       <use xlink:href="#DejaVuSans-36"/>
       <use xlink:href="#DejaVuSans-35" x="63.623047"/>
       <use xlink:href="#DejaVuSans-30" x="127.246094"/>
       <use xlink:href="#DejaVuSans-30" x="190.869141"/>
      </g>
     </g>
    </g>
    <g id="xtick_8">
     <g id="line2d_15">
      <path d="M 720.507837 640.8 
L 720.507837 86.4 
" clip-path="url(#p4609d179d8)" style="fill: none; stroke: #b0b0b0; stroke-width: 0.8; stroke-linecap: square"/>
     </g>
     <g id="line2d_16">
      <g>
       <use xlink:href="#m2373d612d7" x="720.507837" y="640.8" style="stroke: #000000; stroke-width: 0.8"/>
      </g>
     </g>
     <g id="text_8">
      <!-- 7500 -->
      <g transform="translate(707.782837 655.398438) scale(0.1 -0.1)">
       <defs>
        <path id="DejaVuSans-37" d="M 525 4666 
L 3525 4666 
L 3525 4397 
L 1831 0 
L 1172 0 
L 2766 4134 
L 525 4134 
L 525 4666 
z
" transform="scale(0.015625)"/>
       </defs>
       <use xlink:href="#DejaVuSans-37"/>
       <use xlink:href="#DejaVuSans-35" x="63.623047"/>
       <use xlink:href="#DejaVuSans-30" x="127.246094"/>
       <use xlink:href="#DejaVuSans-30" x="190.869141"/>
      </g>
     </g>
    </g>
    <g id="xtick_9">
     <g id="line2d_17">
      <path d="M 790.476489 640.8 
L 790.476489 86.4 
" clip-path="url(#p4609d179d8)" style="fill: none; stroke: #b0b0b0; stroke-width: 0.8; stroke-linecap: square"/>
     </g>
     <g id="line2d_18">
      <g>
       <use xlink:href="#m2373d612d7" x="790.476489" y="640.8" style="stroke: #000000; stroke-width: 0.8"/>
      </g>
     </g>
     <g id="text_9">
      <!-- 8500 -->
      <g transform="translate(777.751489 655.398438) scale(0.1 -0.1)">
       <defs>
        <path id="DejaVuSans-38" d="M 2034 2216 
Q 1584 2216 1326 1975 
Q 1069 1734 1069 1313 
Q 1069 891 1326 650 
Q 1584 409 2034 409 
Q 2484 409 2743 651 
Q 3003 894 3003 1313 
Q 3003 1734 2745 1975 
Q 2488 2216 2034 2216 
z
M 1403 2484 
Q 997 2584 770 2862 
Q 544 3141 544 3541 
Q 544 4100 942 4425 
Q 1341 4750 2034 4750 
Q 2731 4750 3128 4425 
Q 3525 4100 3525 3541 
Q 3525 3141 3298 2862 
Q 3072 2584 2669 2484 
Q 3125 2378 3379 2068 
Q 3634 1759 3634 1313 
Q 3634 634 3220 271 
Q 2806 -91 2034 -91 
Q 1263 -91 848 271 
Q 434 634 434 1313 
Q 434 1759 690 2068 
Q 947 2378 1403 2484 
z
M 1172 3481 
Q 1172 3119 1398 2916 
Q 1625 2713 2034 2713 
Q 2441 2713 2670 2916 
Q 2900 3119 2900 3481 
Q 2900 3844 2670 4047 
Q 2441 4250 2034 4250 
Q 1625 4250 1398 4047 
Q 1172 3844 1172 3481 
z
" transform="scale(0.015625)"/>
       </defs>
       <use xlink:href="#DejaVuSans-38"/>
       <use xlink:href="#DejaVuSans-35" x="63.623047"/>
       <use xlink:href="#DejaVuSans-30" x="127.246094"/>
       <use xlink:href="#DejaVuSans-30" x="190.869141"/>
      </g>
     </g>
    </g>
    <g id="xtick_10">
     <g id="line2d_19">
      <path d="M 860.445141 640.8 
L 860.445141 86.4 
" clip-path="url(#p4609d179d8)" style="fill: none; stroke: #b0b0b0; stroke-width: 0.8; stroke-linecap: square"/>
     </g>
     <g id="line2d_20">
      <g>
       <use xlink:href="#m2373d612d7" x="860.445141" y="640.8" style="stroke: #000000; stroke-width: 0.8"/>
      </g>
     </g>
     <g id="text_10">
      <!-- 9500 -->
      <g transform="translate(847.720141 655.398438) scale(0.1 -0.1)">
       <defs>
        <path id="DejaVuSans-39" d="M 703 97 
L 703 672 
Q 941 559 1184 500 
Q 1428 441 1663 441 
Q 2288 441 2617 861 
Q 2947 1281 2994 2138 
Q 2813 1869 2534 1725 
Q 2256 1581 1919 1581 
Q 1219 1581 811 2004 
Q 403 2428 403 3163 
Q 403 3881 828 4315 
Q 1253 4750 1959 4750 
Q 2769 4750 3195 4129 
Q 3622 3509 3622 2328 
Q 3622 1225 3098 567 
Q 2575 -91 1691 -91 
Q 1453 -91 1209 -44 
Q 966 3 703 97 
z
M 1959 2075 
Q 2384 2075 2632 2365 
Q 2881 2656 2881 3163 
Q 2881 3666 2632 3958 
Q 2384 4250 1959 4250 
Q 1534 4250 1286 3958 
Q 1038 3666 1038 3163 
Q 1038 2656 1286 2365 
Q 1534 2075 1959 2075 
z
" transform="scale(0.015625)"/>
       </defs>
       <use xlink:href="#DejaVuSans-39"/>
       <use xlink:href="#DejaVuSans-35" x="63.623047"/>
       <use xlink:href="#DejaVuSans-30" x="127.246094"/>
       <use xlink:href="#DejaVuSans-30" x="190.869141"/>
      </g>
     </g>
    </g>
    <g id="xtick_11">
     <g id="line2d_21">
      <path d="M 930.413793 640.8 
L 930.413793 86.4 
" clip-path="url(#p4609d179d8)" style="fill: none; stroke: #b0b0b0; stroke-width: 0.8; stroke-linecap: square"/>
     </g>
     <g id="line2d_22">
      <g>
       <use xlink:href="#m2373d612d7" x="930.413793" y="640.8" style="stroke: #000000; stroke-width: 0.8"/>
      </g>
     </g>
     <g id="text_11">
      <!-- 10500 -->
      <g transform="translate(914.507543 655.398438) scale(0.1 -0.1)">
       <use xlink:href="#DejaVuSans-31"/>
       <use xlink:href="#DejaVuSans-30" x="63.623047"/>
       <use xlink:href="#DejaVuSans-35" x="127.246094"/>
       <use xlink:href="#DejaVuSans-30" x="190.869141"/>
       <use xlink:href="#DejaVuSans-30" x="254.492188"/>
      </g>
     </g>
    </g>
    <g id="xtick_12">
     <g id="line2d_23">
      <path d="M 1000.382445 640.8 
L 1000.382445 86.4 
" clip-path="url(#p4609d179d8)" style="fill: none; stroke: #b0b0b0; stroke-width: 0.8; stroke-linecap: square"/>
     </g>
     <g id="line2d_24">
      <g>
       <use xlink:href="#m2373d612d7" x="1000.382445" y="640.8" style="stroke: #000000; stroke-width: 0.8"/>
      </g>
     </g>
     <g id="text_12">
      <!-- 11500 -->
      <g transform="translate(984.476195 655.398438) scale(0.1 -0.1)">
       <use xlink:href="#DejaVuSans-31"/>
       <use xlink:href="#DejaVuSans-31" x="63.623047"/>
       <use xlink:href="#DejaVuSans-35" x="127.246094"/>
       <use xlink:href="#DejaVuSans-30" x="190.869141"/>
       <use xlink:href="#DejaVuSans-30" x="254.492188"/>
      </g>
     </g>
    </g>
    <g id="xtick_13">
     <g id="line2d_25">
      <path d="M 1070.351097 640.8 
L 1070.351097 86.4 
" clip-path="url(#p4609d179d8)" style="fill: none; stroke: #b0b0b0; stroke-width: 0.8; stroke-linecap: square"/>
     </g>
     <g id="line2d_26">
      <g>
       <use xlink:href="#m2373d612d7" x="1070.351097" y="640.8" style="stroke: #000000; stroke-width: 0.8"/>
      </g>
     </g>
     <g id="text_13">
      <!-- 12500 -->
      <g transform="translate(1054.444847 655.398438) scale(0.1 -0.1)">
       <use xlink:href="#DejaVuSans-31"/>
       <use xlink:href="#DejaVuSans-32" x="63.623047"/>
       <use xlink:href="#DejaVuSans-35" x="127.246094"/>
       <use xlink:href="#DejaVuSans-30" x="190.869141"/>
       <use xlink:href="#DejaVuSans-30" x="254.492188"/>
      </g>
     </g>
    </g>
    <g id="xtick_14">
     <g id="line2d_27">
      <path d="M 1140.319749 640.8 
L 1140.319749 86.4 
" clip-path="url(#p4609d179d8)" style="fill: none; stroke: #b0b0b0; stroke-width: 0.8; stroke-linecap: square"/>
     </g>
     <g id="line2d_28">
      <g>
       <use xlink:href="#m2373d612d7" x="1140.319749" y="640.8" style="stroke: #000000; stroke-width: 0.8"/>
      </g>
     </g>
     <g id="text_14">
      <!-- 13500 -->
      <g transform="translate(1124.413499 655.398438) scale(0.1 -0.1)">
       <use xlink:href="#DejaVuSans-31"/>
       <use xlink:href="#DejaVuSans-33" x="63.623047"/>
       <use xlink:href="#DejaVuSans-35" x="127.246094"/>
       <use xlink:href="#DejaVuSans-30" x="190.869141"/>
       <use xlink:href="#DejaVuSans-30" x="254.492188"/>
      </g>
     </g>
    </g>
    <g id="xtick_15">
     <g id="line2d_29">
      <path d="M 1210.288401 640.8 
L 1210.288401 86.4 
" clip-path="url(#p4609d179d8)" style="fill: none; stroke: #b0b0b0; stroke-width: 0.8; stroke-linecap: square"/>
     </g>
     <g id="line2d_30">
      <g>
       <use xlink:href="#m2373d612d7" x="1210.288401" y="640.8" style="stroke: #000000; stroke-width: 0.8"/>
      </g>
     </g>
     <g id="text_15">
      <!-- 14500 -->
      <g transform="translate(1194.382151 655.398438) scale(0.1 -0.1)">
       <use xlink:href="#DejaVuSans-31"/>
       <use xlink:href="#DejaVuSans-34" x="63.623047"/>
       <use xlink:href="#DejaVuSans-35" x="127.246094"/>
       <use xlink:href="#DejaVuSans-30" x="190.869141"/>
       <use xlink:href="#DejaVuSans-30" x="254.492188"/>
      </g>
     </g>
    </g>
    <g id="text_16">
     <!-- Размер сортируемого массива -->
     <g transform="translate(657.594531 669.076563) scale(0.1 -0.1)">
      <defs>
       <path id="DejaVuSans-420" d="M 1259 4147 
L 1259 2394 
L 2053 2394 
Q 2494 2394 2734 2622 
Q 2975 2850 2975 3272 
Q 2975 3691 2734 3919 
Q 2494 4147 2053 4147 
L 1259 4147 
z
M 628 4666 
L 2053 4666 
Q 2838 4666 3239 4311 
Q 3641 3956 3641 3272 
Q 3641 2581 3239 2228 
Q 2838 1875 2053 1875 
L 1259 1875 
L 1259 0 
L 628 0 
L 628 4666 
z
" transform="scale(0.015625)"/>
       <path id="DejaVuSans-430" d="M 2194 1759 
Q 1497 1759 1228 1600 
Q 959 1441 959 1056 
Q 959 750 1161 570 
Q 1363 391 1709 391 
Q 2188 391 2477 730 
Q 2766 1069 2766 1631 
L 2766 1759 
L 2194 1759 
z
M 3341 1997 
L 3341 0 
L 2766 0 
L 2766 531 
Q 2569 213 2275 61 
Q 1981 -91 1556 -91 
Q 1019 -91 701 211 
Q 384 513 384 1019 
Q 384 1609 779 1909 
Q 1175 2209 1959 2209 
L 2766 2209 
L 2766 2266 
Q 2766 2663 2505 2880 
Q 2244 3097 1772 3097 
Q 1472 3097 1187 3025 
Q 903 2953 641 2809 
L 641 3341 
Q 956 3463 1253 3523 
Q 1550 3584 1831 3584 
Q 2591 3584 2966 3190 
Q 3341 2797 3341 1997 
z
" transform="scale(0.015625)"/>
       <path id="DejaVuSans-437" d="M 2206 1888 
Q 2594 1813 2809 1584 
Q 3025 1356 3025 1019 
Q 3025 478 2622 193 
Q 2219 -91 1475 -91 
Q 1225 -91 961 -47 
Q 697 -3 416 84 
L 416 619 
Q 638 503 903 445 
Q 1169 388 1459 388 
Q 1931 388 2195 563 
Q 2459 738 2459 1019 
Q 2459 1294 2225 1461 
Q 1991 1628 1563 1628 
L 1100 1628 
L 1100 2103 
L 1584 2103 
Q 1947 2103 2158 2242 
Q 2369 2381 2369 2600 
Q 2369 2800 2151 2944 
Q 1934 3088 1563 3088 
Q 1341 3088 1089 3047 
Q 838 3006 534 2916 
L 534 3438 
Q 841 3513 1106 3550 
Q 1372 3588 1609 3588 
Q 2222 3588 2576 3342 
Q 2931 3097 2931 2656 
Q 2931 2366 2743 2164 
Q 2556 1963 2206 1888 
z
" transform="scale(0.015625)"/>
       <path id="DejaVuSans-43c" d="M 581 3500 
L 1422 3500 
L 2416 1156 
L 3413 3500 
L 4247 3500 
L 4247 0 
L 3669 0 
L 3669 2950 
L 2703 672 
L 2128 672 
L 1159 2950 
L 1159 0 
L 581 0 
L 581 3500 
z
" transform="scale(0.015625)"/>
       <path id="DejaVuSans-435" d="M 3597 1894 
L 3597 1613 
L 953 1613 
Q 991 1019 1311 708 
Q 1631 397 2203 397 
Q 2534 397 2845 478 
Q 3156 559 3463 722 
L 3463 178 
Q 3153 47 2828 -22 
Q 2503 -91 2169 -91 
Q 1331 -91 842 396 
Q 353 884 353 1716 
Q 353 2575 817 3079 
Q 1281 3584 2069 3584 
Q 2775 3584 3186 3129 
Q 3597 2675 3597 1894 
z
M 3022 2063 
Q 3016 2534 2758 2815 
Q 2500 3097 2075 3097 
Q 1594 3097 1305 2825 
Q 1016 2553 972 2059 
L 3022 2063 
z
" transform="scale(0.015625)"/>
       <path id="DejaVuSans-440" d="M 1159 525 
L 1159 -1331 
L 581 -1331 
L 581 3500 
L 1159 3500 
L 1159 2969 
Q 1341 3281 1617 3432 
Q 1894 3584 2278 3584 
Q 2916 3584 3314 3078 
Q 3713 2572 3713 1747 
Q 3713 922 3314 415 
Q 2916 -91 2278 -91 
Q 1894 -91 1617 61 
Q 1341 213 1159 525 
z
M 3116 1747 
Q 3116 2381 2855 2742 
Q 2594 3103 2138 3103 
Q 1681 3103 1420 2742 
Q 1159 2381 1159 1747 
Q 1159 1113 1420 752 
Q 1681 391 2138 391 
Q 2594 391 2855 752 
Q 3116 1113 3116 1747 
z
" transform="scale(0.015625)"/>
       <path id="DejaVuSans-20" transform="scale(0.015625)"/>
       <path id="DejaVuSans-441" d="M 3122 3366 
L 3122 2828 
Q 2878 2963 2633 3030 
Q 2388 3097 2138 3097 
Q 1578 3097 1268 2742 
Q 959 2388 959 1747 
Q 959 1106 1268 751 
Q 1578 397 2138 397 
Q 2388 397 2633 464 
Q 2878 531 3122 666 
L 3122 134 
Q 2881 22 2623 -34 
Q 2366 -91 2075 -91 
Q 1284 -91 818 406 
Q 353 903 353 1747 
Q 353 2603 823 3093 
Q 1294 3584 2113 3584 
Q 2378 3584 2631 3529 
Q 2884 3475 3122 3366 
z
" transform="scale(0.015625)"/>
       <path id="DejaVuSans-43e" d="M 1959 3097 
Q 1497 3097 1228 2736 
Q 959 2375 959 1747 
Q 959 1119 1226 758 
Q 1494 397 1959 397 
Q 2419 397 2687 759 
Q 2956 1122 2956 1747 
Q 2956 2369 2687 2733 
Q 2419 3097 1959 3097 
z
M 1959 3584 
Q 2709 3584 3137 3096 
Q 3566 2609 3566 1747 
Q 3566 888 3137 398 
Q 2709 -91 1959 -91 
Q 1206 -91 779 398 
Q 353 888 353 1747 
Q 353 2609 779 3096 
Q 1206 3584 1959 3584 
z
" transform="scale(0.015625)"/>
       <path id="DejaVuSans-442" d="M 188 3500 
L 3541 3500 
L 3541 3041 
L 2147 3041 
L 2147 0 
L 1581 0 
L 1581 3041 
L 188 3041 
L 188 3500 
z
" transform="scale(0.015625)"/>
       <path id="DejaVuSans-438" d="M 3578 3500 
L 3578 0 
L 3006 0 
L 3006 2809 
L 1319 0 
L 581 0 
L 581 3500 
L 1153 3500 
L 1153 697 
L 2838 3500 
L 3578 3500 
z
" transform="scale(0.015625)"/>
       <path id="DejaVuSans-443" d="M 2059 -325 
Q 1816 -950 1584 -1140 
Q 1353 -1331 966 -1331 
L 506 -1331 
L 506 -850 
L 844 -850 
Q 1081 -850 1212 -737 
Q 1344 -625 1503 -206 
L 1606 56 
L 191 3500 
L 800 3500 
L 1894 763 
L 2988 3500 
L 3597 3500 
L 2059 -325 
z
" transform="scale(0.015625)"/>
       <path id="DejaVuSans-433" d="M 581 0 
L 581 3500 
L 3050 3500 
L 3050 3041 
L 1159 3041 
L 1159 0 
L 581 0 
z
" transform="scale(0.015625)"/>
       <path id="DejaVuSans-432" d="M 1156 1613 
L 1156 459 
L 1975 459 
Q 2369 459 2575 607 
Q 2781 756 2781 1038 
Q 2781 1319 2575 1466 
Q 2369 1613 1975 1613 
L 1156 1613 
z
M 1156 3041 
L 1156 2072 
L 1913 2072 
Q 2238 2072 2444 2201 
Q 2650 2331 2650 2563 
Q 2650 2794 2444 2917 
Q 2238 3041 1913 3041 
L 1156 3041 
z
M 581 3500 
L 1950 3500 
Q 2566 3500 2897 3275 
Q 3228 3050 3228 2634 
Q 3228 2313 3059 2123 
Q 2891 1934 2559 1888 
Q 2956 1813 3175 1575 
Q 3394 1338 3394 981 
Q 3394 513 3033 256 
Q 2672 0 2003 0 
L 581 0 
L 581 3500 
z
" transform="scale(0.015625)"/>
      </defs>
      <use xlink:href="#DejaVuSans-420"/>
      <use xlink:href="#DejaVuSans-430" x="60.302734"/>
      <use xlink:href="#DejaVuSans-437" x="121.582031"/>
      <use xlink:href="#DejaVuSans-43c" x="174.755859"/>
      <use xlink:href="#DejaVuSans-435" x="250.195312"/>
      <use xlink:href="#DejaVuSans-440" x="311.71875"/>
      <use xlink:href="#DejaVuSans-20" x="375.195312"/>
      <use xlink:href="#DejaVuSans-441" x="406.982422"/>
      <use xlink:href="#DejaVuSans-43e" x="461.962891"/>
      <use xlink:href="#DejaVuSans-440" x="523.144531"/>
      <use xlink:href="#DejaVuSans-442" x="586.621094"/>
      <use xlink:href="#DejaVuSans-438" x="644.873047"/>
      <use xlink:href="#DejaVuSans-440" x="709.863281"/>
      <use xlink:href="#DejaVuSans-443" x="773.339844"/>
      <use xlink:href="#DejaVuSans-435" x="832.519531"/>
      <use xlink:href="#DejaVuSans-43c" x="894.042969"/>
      <use xlink:href="#DejaVuSans-43e" x="969.482422"/>
      <use xlink:href="#DejaVuSans-433" x="1030.664062"/>
      <use xlink:href="#DejaVuSans-43e" x="1083.203125"/>
      <use xlink:href="#DejaVuSans-20" x="1144.384766"/>
      <use xlink:href="#DejaVuSans-43c" x="1176.171875"/>
      <use xlink:href="#DejaVuSans-430" x="1251.611328"/>
      <use xlink:href="#DejaVuSans-441" x="1312.890625"/>
      <use xlink:href="#DejaVuSans-441" x="1367.871094"/>
      <use xlink:href="#DejaVuSans-438" x="1422.851562"/>
      <use xlink:href="#DejaVuSans-432" x="1487.841797"/>
      <use xlink:href="#DejaVuSans-430" x="1546.777344"/>
     </g>
    </g>
   </g>
   <g id="matplotlib.axis_2">
    <g id="ytick_1">
     <g id="line2d_31">
      <path d="M 180 615.992282 
L 1296 615.992282 
" clip-path="url(#p4609d179d8)" style="fill: none; stroke: #b0b0b0; stroke-width: 0.8; stroke-linecap: square"/>
     </g>
     <g id="line2d_32">
      <defs>
       <path id="mef6d25dcae" d="M 0 0 
L -3.5 0 
" style="stroke: #000000; stroke-width: 0.8"/>
      </defs>
      <g>
       <use xlink:href="#mef6d25dcae" x="180" y="615.992282" style="stroke: #000000; stroke-width: 0.8"/>
      </g>
     </g>
     <g id="text_17">
      <!-- 0.0 -->
      <g transform="translate(157.096875 619.791501) scale(0.1 -0.1)">
       <defs>
        <path id="DejaVuSans-2e" d="M 684 794 
L 1344 794 
L 1344 0 
L 684 0 
L 684 794 
z
" transform="scale(0.015625)"/>
       </defs>
       <use xlink:href="#DejaVuSans-30"/>
       <use xlink:href="#DejaVuSans-2e" x="63.623047"/>
       <use xlink:href="#DejaVuSans-30" x="95.410156"/>
      </g>
     </g>
    </g>
    <g id="ytick_2">
     <g id="line2d_33">
      <path d="M 180 551.270733 
L 1296 551.270733 
" clip-path="url(#p4609d179d8)" style="fill: none; stroke: #b0b0b0; stroke-width: 0.8; stroke-linecap: square"/>
     </g>
     <g id="line2d_34">
      <g>
       <use xlink:href="#mef6d25dcae" x="180" y="551.270733" style="stroke: #000000; stroke-width: 0.8"/>
      </g>
     </g>
     <g id="text_18">
      <!-- 0.5 -->
      <g transform="translate(157.096875 555.069952) scale(0.1 -0.1)">
       <use xlink:href="#DejaVuSans-30"/>
       <use xlink:href="#DejaVuSans-2e" x="63.623047"/>
       <use xlink:href="#DejaVuSans-35" x="95.410156"/>
      </g>
     </g>
    </g>
    <g id="ytick_3">
     <g id="line2d_35">
      <path d="M 180 486.549184 
L 1296 486.549184 
" clip-path="url(#p4609d179d8)" style="fill: none; stroke: #b0b0b0; stroke-width: 0.8; stroke-linecap: square"/>
     </g>
     <g id="line2d_36">
      <g>
       <use xlink:href="#mef6d25dcae" x="180" y="486.549184" style="stroke: #000000; stroke-width: 0.8"/>
      </g>
     </g>
     <g id="text_19">
      <!-- 1.0 -->
      <g transform="translate(157.096875 490.348403) scale(0.1 -0.1)">
       <use xlink:href="#DejaVuSans-31"/>
       <use xlink:href="#DejaVuSans-2e" x="63.623047"/>
       <use xlink:href="#DejaVuSans-30" x="95.410156"/>
      </g>
     </g>
    </g>
    <g id="ytick_4">
     <g id="line2d_37">
      <path d="M 180 421.827636 
L 1296 421.827636 
" clip-path="url(#p4609d179d8)" style="fill: none; stroke: #b0b0b0; stroke-width: 0.8; stroke-linecap: square"/>
     </g>
     <g id="line2d_38">
      <g>
       <use xlink:href="#mef6d25dcae" x="180" y="421.827636" style="stroke: #000000; stroke-width: 0.8"/>
      </g>
     </g>
     <g id="text_20">
      <!-- 1.5 -->
      <g transform="translate(157.096875 425.626854) scale(0.1 -0.1)">
       <use xlink:href="#DejaVuSans-31"/>
       <use xlink:href="#DejaVuSans-2e" x="63.623047"/>
       <use xlink:href="#DejaVuSans-35" x="95.410156"/>
      </g>
     </g>
    </g>
    <g id="ytick_5">
     <g id="line2d_39">
      <path d="M 180 357.106087 
L 1296 357.106087 
" clip-path="url(#p4609d179d8)" style="fill: none; stroke: #b0b0b0; stroke-width: 0.8; stroke-linecap: square"/>
     </g>
     <g id="line2d_40">
      <g>
       <use xlink:href="#mef6d25dcae" x="180" y="357.106087" style="stroke: #000000; stroke-width: 0.8"/>
      </g>
     </g>
     <g id="text_21">
      <!-- 2.0 -->
      <g transform="translate(157.096875 360.905306) scale(0.1 -0.1)">
       <use xlink:href="#DejaVuSans-32"/>
       <use xlink:href="#DejaVuSans-2e" x="63.623047"/>
       <use xlink:href="#DejaVuSans-30" x="95.410156"/>
      </g>
     </g>
    </g>
    <g id="ytick_6">
     <g id="line2d_41">
      <path d="M 180 292.384538 
L 1296 292.384538 
" clip-path="url(#p4609d179d8)" style="fill: none; stroke: #b0b0b0; stroke-width: 0.8; stroke-linecap: square"/>
     </g>
     <g id="line2d_42">
      <g>
       <use xlink:href="#mef6d25dcae" x="180" y="292.384538" style="stroke: #000000; stroke-width: 0.8"/>
      </g>
     </g>
     <g id="text_22">
      <!-- 2.5 -->
      <g transform="translate(157.096875 296.183757) scale(0.1 -0.1)">
       <use xlink:href="#DejaVuSans-32"/>
       <use xlink:href="#DejaVuSans-2e" x="63.623047"/>
       <use xlink:href="#DejaVuSans-35" x="95.410156"/>
      </g>
     </g>
    </g>
    <g id="ytick_7">
     <g id="line2d_43">
      <path d="M 180 227.662989 
L 1296 227.662989 
" clip-path="url(#p4609d179d8)" style="fill: none; stroke: #b0b0b0; stroke-width: 0.8; stroke-linecap: square"/>
     </g>
     <g id="line2d_44">
      <g>
       <use xlink:href="#mef6d25dcae" x="180" y="227.662989" style="stroke: #000000; stroke-width: 0.8"/>
      </g>
     </g>
     <g id="text_23">
      <!-- 3.0 -->
      <g transform="translate(157.096875 231.462208) scale(0.1 -0.1)">
       <use xlink:href="#DejaVuSans-33"/>
       <use xlink:href="#DejaVuSans-2e" x="63.623047"/>
       <use xlink:href="#DejaVuSans-30" x="95.410156"/>
      </g>
     </g>
    </g>
    <g id="ytick_8">
     <g id="line2d_45">
      <path d="M 180 162.941441 
L 1296 162.941441 
" clip-path="url(#p4609d179d8)" style="fill: none; stroke: #b0b0b0; stroke-width: 0.8; stroke-linecap: square"/>
     </g>
     <g id="line2d_46">
      <g>
       <use xlink:href="#mef6d25dcae" x="180" y="162.941441" style="stroke: #000000; stroke-width: 0.8"/>
      </g>
     </g>
     <g id="text_24">
      <!-- 3.5 -->
      <g transform="translate(157.096875 166.740659) scale(0.1 -0.1)">
       <use xlink:href="#DejaVuSans-33"/>
       <use xlink:href="#DejaVuSans-2e" x="63.623047"/>
       <use xlink:href="#DejaVuSans-35" x="95.410156"/>
      </g>
     </g>
    </g>
    <g id="ytick_9">
     <g id="line2d_47">
      <path d="M 180 98.219892 
L 1296 98.219892 
" clip-path="url(#p4609d179d8)" style="fill: none; stroke: #b0b0b0; stroke-width: 0.8; stroke-linecap: square"/>
     </g>
     <g id="line2d_48">
      <g>
       <use xlink:href="#mef6d25dcae" x="180" y="98.219892" style="stroke: #000000; stroke-width: 0.8"/>
      </g>
     </g>
     <g id="text_25">
      <!-- 4.0 -->
      <g transform="translate(157.096875 102.019111) scale(0.1 -0.1)">
       <use xlink:href="#DejaVuSans-34"/>
       <use xlink:href="#DejaVuSans-2e" x="63.623047"/>
       <use xlink:href="#DejaVuSans-30" x="95.410156"/>
      </g>
     </g>
    </g>
    <g id="text_26">
     <!-- Время в наносекундах -->
     <g transform="translate(151.017188 423.401562) rotate(-90) scale(0.1 -0.1)">
      <defs>
       <path id="DejaVuSans-412" d="M 1259 2228 
L 1259 519 
L 2272 519 
Q 2781 519 3026 730 
Q 3272 941 3272 1375 
Q 3272 1813 3026 2020 
Q 2781 2228 2272 2228 
L 1259 2228 
z
M 1259 4147 
L 1259 2741 
L 2194 2741 
Q 2656 2741 2882 2914 
Q 3109 3088 3109 3444 
Q 3109 3797 2882 3972 
Q 2656 4147 2194 4147 
L 1259 4147 
z
M 628 4666 
L 2241 4666 
Q 2963 4666 3353 4366 
Q 3744 4066 3744 3513 
Q 3744 3084 3544 2831 
Q 3344 2578 2956 2516 
Q 3422 2416 3680 2098 
Q 3938 1781 3938 1306 
Q 3938 681 3513 340 
Q 3088 0 2303 0 
L 628 0 
L 628 4666 
z
" transform="scale(0.015625)"/>
       <path id="DejaVuSans-44f" d="M 1181 2491 
Q 1181 2231 1381 2084 
Q 1581 1938 1953 1938 
L 2728 1938 
L 2728 3041 
L 1953 3041 
Q 1581 3041 1381 2897 
Q 1181 2753 1181 2491 
z
M 363 0 
L 1431 1534 
Q 1069 1616 828 1830 
Q 588 2044 588 2491 
Q 588 2997 923 3248 
Q 1259 3500 1938 3500 
L 3306 3500 
L 3306 0 
L 2728 0 
L 2728 1478 
L 2013 1478 
L 981 0 
L 363 0 
z
" transform="scale(0.015625)"/>
       <path id="DejaVuSans-43d" d="M 581 3500 
L 1159 3500 
L 1159 2072 
L 3025 2072 
L 3025 3500 
L 3603 3500 
L 3603 0 
L 3025 0 
L 3025 1613 
L 1159 1613 
L 1159 0 
L 581 0 
L 581 3500 
z
" transform="scale(0.015625)"/>
       <path id="DejaVuSans-43a" d="M 581 3500 
L 1153 3500 
L 1153 1856 
L 2775 3500 
L 3481 3500 
L 2144 2147 
L 3653 0 
L 3009 0 
L 1769 1766 
L 1153 1141 
L 1153 0 
L 581 0 
L 581 3500 
z
" transform="scale(0.015625)"/>
       <path id="DejaVuSans-434" d="M 1384 459 
L 3053 459 
L 3053 3041 
L 1844 3041 
L 1844 2603 
Q 1844 1316 1475 628 
L 1384 459 
z
M 550 459 
Q 834 584 959 850 
Q 1266 1509 1266 2838 
L 1266 3500 
L 3631 3500 
L 3631 459 
L 4091 459 
L 4091 -884 
L 3631 -884 
L 3631 0 
L 794 0 
L 794 -884 
L 334 -884 
L 334 459 
L 550 459 
z
" transform="scale(0.015625)"/>
       <path id="DejaVuSans-445" d="M 3513 3500 
L 2247 1797 
L 3578 0 
L 2900 0 
L 1881 1375 
L 863 0 
L 184 0 
L 1544 1831 
L 300 3500 
L 978 3500 
L 1906 2253 
L 2834 3500 
L 3513 3500 
z
" transform="scale(0.015625)"/>
      </defs>
      <use xlink:href="#DejaVuSans-412"/>
      <use xlink:href="#DejaVuSans-440" x="68.603516"/>
      <use xlink:href="#DejaVuSans-435" x="132.080078"/>
      <use xlink:href="#DejaVuSans-43c" x="193.603516"/>
      <use xlink:href="#DejaVuSans-44f" x="269.042969"/>
      <use xlink:href="#DejaVuSans-20" x="329.199219"/>
      <use xlink:href="#DejaVuSans-432" x="360.986328"/>
      <use xlink:href="#DejaVuSans-20" x="419.921875"/>
      <use xlink:href="#DejaVuSans-43d" x="451.708984"/>
      <use xlink:href="#DejaVuSans-430" x="517.089844"/>
      <use xlink:href="#DejaVuSans-43d" x="578.369141"/>
      <use xlink:href="#DejaVuSans-43e" x="643.75"/>
      <use xlink:href="#DejaVuSans-441" x="704.931641"/>
      <use xlink:href="#DejaVuSans-435" x="759.912109"/>
      <use xlink:href="#DejaVuSans-43a" x="821.435547"/>
      <use xlink:href="#DejaVuSans-443" x="881.835938"/>
      <use xlink:href="#DejaVuSans-43d" x="941.015625"/>
      <use xlink:href="#DejaVuSans-434" x="1006.396484"/>
      <use xlink:href="#DejaVuSans-430" x="1075.537109"/>
      <use xlink:href="#DejaVuSans-445" x="1136.816406"/>
     </g>
    </g>
    <g id="text_27">
     <!-- 1e8 -->
     <g transform="translate(180 83.4) scale(0.1 -0.1)">
      <defs>
       <path id="DejaVuSans-65" d="M 3597 1894 
L 3597 1613 
L 953 1613 
Q 991 1019 1311 708 
Q 1631 397 2203 397 
Q 2534 397 2845 478 
Q 3156 559 3463 722 
L 3463 178 
Q 3153 47 2828 -22 
Q 2503 -91 2169 -91 
Q 1331 -91 842 396 
Q 353 884 353 1716 
Q 353 2575 817 3079 
Q 1281 3584 2069 3584 
Q 2775 3584 3186 3129 
Q 3597 2675 3597 1894 
z
M 3022 2063 
Q 3016 2534 2758 2815 
Q 2500 3097 2075 3097 
Q 1594 3097 1305 2825 
Q 1016 2553 972 2059 
L 3022 2063 
z
" transform="scale(0.015625)"/>
      </defs>
      <use xlink:href="#DejaVuSans-31"/>
      <use xlink:href="#DejaVuSans-65" x="63.623047"/>
      <use xlink:href="#DejaVuSans-38" x="125.146484"/>
     </g>
    </g>
   </g>
   <g id="line2d_49">
    <path d="M 230.727273 615.488922 
L 265.711599 614.045435 
L 300.695925 611.807691 
L 335.680251 608.501988 
L 370.664577 604.479358 
L 405.648903 599.32058 
L 440.633229 593.267581 
L 475.617555 586.314509 
L 510.601881 577.389055 
L 545.586207 568.127324 
L 580.570533 557.942144 
L 615.554859 546.850357 
L 650.539185 533.885589 
L 685.523511 519.328821 
L 720.507837 505.148798 
L 755.492163 487.108324 
L 790.476489 471.923415 
L 825.460815 451.876829 
L 860.445141 433.468296 
L 895.429467 411.909119 
L 930.413793 387.775476 
L 965.398119 361.334475 
L 1000.382445 338.209733 
L 1035.366771 305.808711 
L 1070.351097 279.940387 
L 1105.335423 244.542966 
L 1140.319749 212.229492 
L 1175.304075 188.190959 
L 1210.288401 151.479779 
L 1245.272727 114.290839 
" clip-path="url(#p4609d179d8)" style="fill: none; stroke: #1f77b4; stroke-linecap: square"/>
    <defs>
     <path id="m89ed500823" d="M 0 2 
C 0.530406 2 1.03916 1.789267 1.414214 1.414214 
C 1.789267 1.03916 2 0.530406 2 0 
C 2 -0.530406 1.789267 -1.03916 1.414214 -1.414214 
C 1.03916 -1.789267 0.530406 -2 0 -2 
C -0.530406 -2 -1.03916 -1.789267 -1.414214 -1.414214 
C -1.789267 -1.03916 -2 -0.530406 -2 0 
C -2 0.530406 -1.789267 1.03916 -1.414214 1.414214 
C -1.03916 1.789267 -0.530406 2 0 2 
z
" style="stroke: #1f77b4"/>
    </defs>
    <g clip-path="url(#p4609d179d8)">
     <use xlink:href="#m89ed500823" x="230.727273" y="615.488922" style="fill: #1f77b4; stroke: #1f77b4"/>
     <use xlink:href="#m89ed500823" x="265.711599" y="614.045435" style="fill: #1f77b4; stroke: #1f77b4"/>
     <use xlink:href="#m89ed500823" x="300.695925" y="611.807691" style="fill: #1f77b4; stroke: #1f77b4"/>
     <use xlink:href="#m89ed500823" x="335.680251" y="608.501988" style="fill: #1f77b4; stroke: #1f77b4"/>
     <use xlink:href="#m89ed500823" x="370.664577" y="604.479358" style="fill: #1f77b4; stroke: #1f77b4"/>
     <use xlink:href="#m89ed500823" x="405.648903" y="599.32058" style="fill: #1f77b4; stroke: #1f77b4"/>
     <use xlink:href="#m89ed500823" x="440.633229" y="593.267581" style="fill: #1f77b4; stroke: #1f77b4"/>
     <use xlink:href="#m89ed500823" x="475.617555" y="586.314509" style="fill: #1f77b4; stroke: #1f77b4"/>
     <use xlink:href="#m89ed500823" x="510.601881" y="577.389055" style="fill: #1f77b4; stroke: #1f77b4"/>
     <use xlink:href="#m89ed500823" x="545.586207" y="568.127324" style="fill: #1f77b4; stroke: #1f77b4"/>
     <use xlink:href="#m89ed500823" x="580.570533" y="557.942144" style="fill: #1f77b4; stroke: #1f77b4"/>
     <use xlink:href="#m89ed500823" x="615.554859" y="546.850357" style="fill: #1f77b4; stroke: #1f77b4"/>
     <use xlink:href="#m89ed500823" x="650.539185" y="533.885589" style="fill: #1f77b4; stroke: #1f77b4"/>
     <use xlink:href="#m89ed500823" x="685.523511" y="519.328821" style="fill: #1f77b4; stroke: #1f77b4"/>
     <use xlink:href="#m89ed500823" x="720.507837" y="505.148798" style="fill: #1f77b4; stroke: #1f77b4"/>
     <use xlink:href="#m89ed500823" x="755.492163" y="487.108324" style="fill: #1f77b4; stroke: #1f77b4"/>
     <use xlink:href="#m89ed500823" x="790.476489" y="471.923415" style="fill: #1f77b4; stroke: #1f77b4"/>
     <use xlink:href="#m89ed500823" x="825.460815" y="451.876829" style="fill: #1f77b4; stroke: #1f77b4"/>
     <use xlink:href="#m89ed500823" x="860.445141" y="433.468296" style="fill: #1f77b4; stroke: #1f77b4"/>
     <use xlink:href="#m89ed500823" x="895.429467" y="411.909119" style="fill: #1f77b4; stroke: #1f77b4"/>
     <use xlink:href="#m89ed500823" x="930.413793" y="387.775476" style="fill: #1f77b4; stroke: #1f77b4"/>
     <use xlink:href="#m89ed500823" x="965.398119" y="361.334475" style="fill: #1f77b4; stroke: #1f77b4"/>
     <use xlink:href="#m89ed500823" x="1000.382445" y="338.209733" style="fill: #1f77b4; stroke: #1f77b4"/>
     <use xlink:href="#m89ed500823" x="1035.366771" y="305.808711" style="fill: #1f77b4; stroke: #1f77b4"/>
     <use xlink:href="#m89ed500823" x="1070.351097" y="279.940387" style="fill: #1f77b4; stroke: #1f77b4"/>
     <use xlink:href="#m89ed500823" x="1105.335423" y="244.542966" style="fill: #1f77b4; stroke: #1f77b4"/>
     <use xlink:href="#m89ed500823" x="1140.319749" y="212.229492" style="fill: #1f77b4; stroke: #1f77b4"/>
     <use xlink:href="#m89ed500823" x="1175.304075" y="188.190959" style="fill: #1f77b4; stroke: #1f77b4"/>
     <use xlink:href="#m89ed500823" x="1210.288401" y="151.479779" style="fill: #1f77b4; stroke: #1f77b4"/>
     <use xlink:href="#m89ed500823" x="1245.272727" y="114.290839" style="fill: #1f77b4; stroke: #1f77b4"/>
    </g>
   </g>
   <g id="line2d_50">
    <path d="M 230.727273 615.6 
L 265.711599 614.402665 
L 300.695925 612.500588 
L 335.680251 609.750642 
L 370.664577 606.531251 
L 405.648903 602.122024 
L 440.633229 596.585068 
L 475.617555 590.97114 
L 510.601881 583.271872 
L 545.586207 576.286986 
L 580.570533 567.885988 
L 615.554859 557.420594 
L 650.539185 547.041614 
L 685.523511 534.831268 
L 720.507837 522.821353 
L 755.492163 506.124054 
L 790.476489 492.484978 
L 825.460815 476.915887 
L 860.445141 459.363519 
L 895.429467 438.485052 
L 930.413793 418.244425 
L 965.398119 396.70584 
L 1000.382445 377.810621 
L 1035.366771 354.553352 
L 1070.351097 326.431317 
L 1105.335423 301.268139 
L 1140.319749 276.81869 
L 1175.304075 249.445438 
L 1210.288401 212.648542 
L 1245.272727 178.21624 
" clip-path="url(#p4609d179d8)" style="fill: none; stroke: #ff7f0e; stroke-linecap: square"/>
    <defs>
     <path id="m8266abb59a" d="M 0 2 
C 0.530406 2 1.03916 1.789267 1.414214 1.414214 
C 1.789267 1.03916 2 0.530406 2 0 
C 2 -0.530406 1.789267 -1.03916 1.414214 -1.414214 
C 1.03916 -1.789267 0.530406 -2 0 -2 
C -0.530406 -2 -1.03916 -1.789267 -1.414214 -1.414214 
C -1.789267 -1.03916 -2 -0.530406 -2 0 
C -2 0.530406 -1.789267 1.03916 -1.414214 1.414214 
C -1.03916 1.789267 -0.530406 2 0 2 
z
" style="stroke: #ff7f0e"/>
    </defs>
    <g clip-path="url(#p4609d179d8)">
     <use xlink:href="#m8266abb59a" x="230.727273" y="615.6" style="fill: #ff7f0e; stroke: #ff7f0e"/>
     <use xlink:href="#m8266abb59a" x="265.711599" y="614.402665" style="fill: #ff7f0e; stroke: #ff7f0e"/>
     <use xlink:href="#m8266abb59a" x="300.695925" y="612.500588" style="fill: #ff7f0e; stroke: #ff7f0e"/>
     <use xlink:href="#m8266abb59a" x="335.680251" y="609.750642" style="fill: #ff7f0e; stroke: #ff7f0e"/>
     <use xlink:href="#m8266abb59a" x="370.664577" y="606.531251" style="fill: #ff7f0e; stroke: #ff7f0e"/>
     <use xlink:href="#m8266abb59a" x="405.648903" y="602.122024" style="fill: #ff7f0e; stroke: #ff7f0e"/>
     <use xlink:href="#m8266abb59a" x="440.633229" y="596.585068" style="fill: #ff7f0e; stroke: #ff7f0e"/>
     <use xlink:href="#m8266abb59a" x="475.617555" y="590.97114" style="fill: #ff7f0e; stroke: #ff7f0e"/>
     <use xlink:href="#m8266abb59a" x="510.601881" y="583.271872" style="fill: #ff7f0e; stroke: #ff7f0e"/>
     <use xlink:href="#m8266abb59a" x="545.586207" y="576.286986" style="fill: #ff7f0e; stroke: #ff7f0e"/>
     <use xlink:href="#m8266abb59a" x="580.570533" y="567.885988" style="fill: #ff7f0e; stroke: #ff7f0e"/>
     <use xlink:href="#m8266abb59a" x="615.554859" y="557.420594" style="fill: #ff7f0e; stroke: #ff7f0e"/>
     <use xlink:href="#m8266abb59a" x="650.539185" y="547.041614" style="fill: #ff7f0e; stroke: #ff7f0e"/>
     <use xlink:href="#m8266abb59a" x="685.523511" y="534.831268" style="fill: #ff7f0e; stroke: #ff7f0e"/>
     <use xlink:href="#m8266abb59a" x="720.507837" y="522.821353" style="fill: #ff7f0e; stroke: #ff7f0e"/>
     <use xlink:href="#m8266abb59a" x="755.492163" y="506.124054" style="fill: #ff7f0e; stroke: #ff7f0e"/>
     <use xlink:href="#m8266abb59a" x="790.476489" y="492.484978" style="fill: #ff7f0e; stroke: #ff7f0e"/>
     <use xlink:href="#m8266abb59a" x="825.460815" y="476.915887" style="fill: #ff7f0e; stroke: #ff7f0e"/>
     <use xlink:href="#m8266abb59a" x="860.445141" y="459.363519" style="fill: #ff7f0e; stroke: #ff7f0e"/>
     <use xlink:href="#m8266abb59a" x="895.429467" y="438.485052" style="fill: #ff7f0e; stroke: #ff7f0e"/>
     <use xlink:href="#m8266abb59a" x="930.413793" y="418.244425" style="fill: #ff7f0e; stroke: #ff7f0e"/>
     <use xlink:href="#m8266abb59a" x="965.398119" y="396.70584" style="fill: #ff7f0e; stroke: #ff7f0e"/>
     <use xlink:href="#m8266abb59a" x="1000.382445" y="377.810621" style="fill: #ff7f0e; stroke: #ff7f0e"/>
     <use xlink:href="#m8266abb59a" x="1035.366771" y="354.553352" style="fill: #ff7f0e; stroke: #ff7f0e"/>
     <use xlink:href="#m8266abb59a" x="1070.351097" y="326.431317" style="fill: #ff7f0e; stroke: #ff7f0e"/>
     <use xlink:href="#m8266abb59a" x="1105.335423" y="301.268139" style="fill: #ff7f0e; stroke: #ff7f0e"/>
     <use xlink:href="#m8266abb59a" x="1140.319749" y="276.81869" style="fill: #ff7f0e; stroke: #ff7f0e"/>
     <use xlink:href="#m8266abb59a" x="1175.304075" y="249.445438" style="fill: #ff7f0e; stroke: #ff7f0e"/>
     <use xlink:href="#m8266abb59a" x="1210.288401" y="212.648542" style="fill: #ff7f0e; stroke: #ff7f0e"/>
     <use xlink:href="#m8266abb59a" x="1245.272727" y="178.21624" style="fill: #ff7f0e; stroke: #ff7f0e"/>
    </g>
   </g>
   <g id="line2d_51">
    <path d="M 230.727273 615.489373 
L 265.711599 614.062229 
L 300.695925 611.840842 
L 335.680251 608.610307 
L 370.664577 604.60592 
L 405.648903 599.486137 
L 440.633229 593.611751 
L 475.617555 586.914001 
L 510.601881 578.949569 
L 545.586207 569.667366 
L 580.570533 559.877922 
L 615.554859 548.598948 
L 650.539185 535.994297 
L 685.523511 520.981997 
L 720.507837 506.410472 
L 755.492163 491.847152 
L 790.476489 473.706666 
L 825.460815 456.335408 
L 860.445141 437.488301 
L 895.429467 415.615379 
L 930.413793 393.765478 
L 965.398119 363.351085 
L 1000.382445 338.549228 
L 1035.366771 309.613735 
L 1070.351097 285.333649 
L 1105.335423 255.446356 
L 1140.319749 220.250796 
L 1175.304075 189.725213 
L 1210.288401 153.904449 
L 1245.272727 111.6 
" clip-path="url(#p4609d179d8)" style="fill: none; stroke: #2ca02c; stroke-linecap: square"/>
    <defs>
     <path id="m2309303fb5" d="M 0 2 
C 0.530406 2 1.03916 1.789267 1.414214 1.414214 
C 1.789267 1.03916 2 0.530406 2 0 
C 2 -0.530406 1.789267 -1.03916 1.414214 -1.414214 
C 1.03916 -1.789267 0.530406 -2 0 -2 
C -0.530406 -2 -1.03916 -1.789267 -1.414214 -1.414214 
C -1.789267 -1.03916 -2 -0.530406 -2 0 
C -2 0.530406 -1.789267 1.03916 -1.414214 1.414214 
C -1.03916 1.789267 -0.530406 2 0 2 
z
" style="stroke: #2ca02c"/>
    </defs>
    <g clip-path="url(#p4609d179d8)">
     <use xlink:href="#m2309303fb5" x="230.727273" y="615.489373" style="fill: #2ca02c; stroke: #2ca02c"/>
     <use xlink:href="#m2309303fb5" x="265.711599" y="614.062229" style="fill: #2ca02c; stroke: #2ca02c"/>
     <use xlink:href="#m2309303fb5" x="300.695925" y="611.840842" style="fill: #2ca02c; stroke: #2ca02c"/>
     <use xlink:href="#m2309303fb5" x="335.680251" y="608.610307" style="fill: #2ca02c; stroke: #2ca02c"/>
     <use xlink:href="#m2309303fb5" x="370.664577" y="604.60592" style="fill: #2ca02c; stroke: #2ca02c"/>
     <use xlink:href="#m2309303fb5" x="405.648903" y="599.486137" style="fill: #2ca02c; stroke: #2ca02c"/>
     <use xlink:href="#m2309303fb5" x="440.633229" y="593.611751" style="fill: #2ca02c; stroke: #2ca02c"/>
     <use xlink:href="#m2309303fb5" x="475.617555" y="586.914001" style="fill: #2ca02c; stroke: #2ca02c"/>
     <use xlink:href="#m2309303fb5" x="510.601881" y="578.949569" style="fill: #2ca02c; stroke: #2ca02c"/>
     <use xlink:href="#m2309303fb5" x="545.586207" y="569.667366" style="fill: #2ca02c; stroke: #2ca02c"/>
     <use xlink:href="#m2309303fb5" x="580.570533" y="559.877922" style="fill: #2ca02c; stroke: #2ca02c"/>
     <use xlink:href="#m2309303fb5" x="615.554859" y="548.598948" style="fill: #2ca02c; stroke: #2ca02c"/>
     <use xlink:href="#m2309303fb5" x="650.539185" y="535.994297" style="fill: #2ca02c; stroke: #2ca02c"/>
     <use xlink:href="#m2309303fb5" x="685.523511" y="520.981997" style="fill: #2ca02c; stroke: #2ca02c"/>
     <use xlink:href="#m2309303fb5" x="720.507837" y="506.410472" style="fill: #2ca02c; stroke: #2ca02c"/>
     <use xlink:href="#m2309303fb5" x="755.492163" y="491.847152" style="fill: #2ca02c; stroke: #2ca02c"/>
     <use xlink:href="#m2309303fb5" x="790.476489" y="473.706666" style="fill: #2ca02c; stroke: #2ca02c"/>
     <use xlink:href="#m2309303fb5" x="825.460815" y="456.335408" style="fill: #2ca02c; stroke: #2ca02c"/>
     <use xlink:href="#m2309303fb5" x="860.445141" y="437.488301" style="fill: #2ca02c; stroke: #2ca02c"/>
     <use xlink:href="#m2309303fb5" x="895.429467" y="415.615379" style="fill: #2ca02c; stroke: #2ca02c"/>
     <use xlink:href="#m2309303fb5" x="930.413793" y="393.765478" style="fill: #2ca02c; stroke: #2ca02c"/>
     <use xlink:href="#m2309303fb5" x="965.398119" y="363.351085" style="fill: #2ca02c; stroke: #2ca02c"/>
     <use xlink:href="#m2309303fb5" x="1000.382445" y="338.549228" style="fill: #2ca02c; stroke: #2ca02c"/>
     <use xlink:href="#m2309303fb5" x="1035.366771" y="309.613735" style="fill: #2ca02c; stroke: #2ca02c"/>
     <use xlink:href="#m2309303fb5" x="1070.351097" y="285.333649" style="fill: #2ca02c; stroke: #2ca02c"/>
     <use xlink:href="#m2309303fb5" x="1105.335423" y="255.446356" style="fill: #2ca02c; stroke: #2ca02c"/>
     <use xlink:href="#m2309303fb5" x="1140.319749" y="220.250796" style="fill: #2ca02c; stroke: #2ca02c"/>
     <use xlink:href="#m2309303fb5" x="1175.304075" y="189.725213" style="fill: #2ca02c; stroke: #2ca02c"/>
     <use xlink:href="#m2309303fb5" x="1210.288401" y="153.904449" style="fill: #2ca02c; stroke: #2ca02c"/>
     <use xlink:href="#m2309303fb5" x="1245.272727" y="111.6" style="fill: #2ca02c; stroke: #2ca02c"/>
    </g>
   </g>
   <g id="patch_3">
    <path d="M 180 640.8 
L 180 86.4 
" style="fill: none; stroke: #000000; stroke-width: 0.8; stroke-linejoin: miter; stroke-linecap: square"/>
   </g>
   <g id="patch_4">
    <path d="M 1296 640.8 
L 1296 86.4 
" style="fill: none; stroke: #000000; stroke-width: 0.8; stroke-linejoin: miter; stroke-linecap: square"/>
   </g>
   <g id="patch_5">
    <path d="M 180 640.8 
L 1296 640.8 
" style="fill: none; stroke: #000000; stroke-width: 0.8; stroke-linejoin: miter; stroke-linecap: square"/>
   </g>
   <g id="patch_6">
    <path d="M 180 86.4 
L 1296 86.4 
" style="fill: none; stroke: #000000; stroke-width: 0.8; stroke-linejoin: miter; stroke-linecap: square"/>
   </g>
   <g id="text_28">
    <!-- График зависимости размера от времени. Метод измерения: external -->
    <g transform="translate(516.797812 80.4) scale(0.12 -0.12)">
     <defs>
      <path id="DejaVuSans-413" d="M 628 0 
L 628 4666 
L 3531 4666 
L 3531 4134 
L 1259 4134 
L 1259 0 
L 628 0 
z
" transform="scale(0.015625)"/>
      <path id="DejaVuSans-444" d="M 947 1747 
Q 947 1013 1173 702 
Q 1400 391 1784 391 
Q 2091 391 2447 916 
L 2447 2578 
Q 2091 3103 1784 3103 
Q 1400 3103 1173 2792 
Q 947 2481 947 1747 
z
M 2447 -1331 
L 2447 447 
Q 2269 153 2064 31 
Q 1859 -91 1600 -91 
Q 1078 -91 714 392 
Q 350 875 350 1734 
Q 350 2594 714 3089 
Q 1078 3584 1600 3584 
Q 1859 3584 2064 3465 
Q 2269 3347 2447 3053 
L 2447 4666 
L 3025 4666 
L 3025 3053 
Q 3203 3347 3408 3465 
Q 3613 3584 3872 3584 
Q 4394 3584 4758 3089 
Q 5122 2594 5122 1734 
Q 5122 875 4758 392 
Q 4394 -91 3872 -91 
Q 3613 -91 3408 31 
Q 3203 153 3025 447 
L 3025 -1331 
L 2447 -1331 
z
M 4525 1747 
Q 4525 2481 4298 2792 
Q 4072 3103 3688 3103 
Q 3381 3103 3025 2578 
L 3025 916 
Q 3381 391 3688 391 
Q 4072 391 4298 702 
Q 4525 1013 4525 1747 
z
" transform="scale(0.015625)"/>
      <path id="DejaVuSans-41c" d="M 628 4666 
L 1569 4666 
L 2759 1491 
L 3956 4666 
L 4897 4666 
L 4897 0 
L 4281 0 
L 4281 4097 
L 3078 897 
L 2444 897 
L 1241 4097 
L 1241 0 
L 628 0 
L 628 4666 
z
" transform="scale(0.015625)"/>
      <path id="DejaVuSans-3a" d="M 750 794 
L 1409 794 
L 1409 0 
L 750 0 
L 750 794 
z
M 750 3309 
L 1409 3309 
L 1409 2516 
L 750 2516 
L 750 3309 
z
" transform="scale(0.015625)"/>
      <path id="DejaVuSans-78" d="M 3513 3500 
L 2247 1797 
L 3578 0 
L 2900 0 
L 1881 1375 
L 863 0 
L 184 0 
L 1544 1831 
L 300 3500 
L 978 3500 
L 1906 2253 
L 2834 3500 
L 3513 3500 
z
" transform="scale(0.015625)"/>
      <path id="DejaVuSans-74" d="M 1172 4494 
L 1172 3500 
L 2356 3500 
L 2356 3053 
L 1172 3053 
L 1172 1153 
Q 1172 725 1289 603 
Q 1406 481 1766 481 
L 2356 481 
L 2356 0 
L 1766 0 
Q 1100 0 847 248 
Q 594 497 594 1153 
L 594 3053 
L 172 3053 
L 172 3500 
L 594 3500 
L 594 4494 
L 1172 4494 
z
" transform="scale(0.015625)"/>
      <path id="DejaVuSans-72" d="M 2631 2963 
Q 2534 3019 2420 3045 
Q 2306 3072 2169 3072 
Q 1681 3072 1420 2755 
Q 1159 2438 1159 1844 
L 1159 0 
L 581 0 
L 581 3500 
L 1159 3500 
L 1159 2956 
Q 1341 3275 1631 3429 
Q 1922 3584 2338 3584 
Q 2397 3584 2469 3576 
Q 2541 3569 2628 3553 
L 2631 2963 
z
" transform="scale(0.015625)"/>
      <path id="DejaVuSans-6e" d="M 3513 2113 
L 3513 0 
L 2938 0 
L 2938 2094 
Q 2938 2591 2744 2837 
Q 2550 3084 2163 3084 
Q 1697 3084 1428 2787 
Q 1159 2491 1159 1978 
L 1159 0 
L 581 0 
L 581 3500 
L 1159 3500 
L 1159 2956 
Q 1366 3272 1645 3428 
Q 1925 3584 2291 3584 
Q 2894 3584 3203 3211 
Q 3513 2838 3513 2113 
z
" transform="scale(0.015625)"/>
      <path id="DejaVuSans-61" d="M 2194 1759 
Q 1497 1759 1228 1600 
Q 959 1441 959 1056 
Q 959 750 1161 570 
Q 1363 391 1709 391 
Q 2188 391 2477 730 
Q 2766 1069 2766 1631 
L 2766 1759 
L 2194 1759 
z
M 3341 1997 
L 3341 0 
L 2766 0 
L 2766 531 
Q 2569 213 2275 61 
Q 1981 -91 1556 -91 
Q 1019 -91 701 211 
Q 384 513 384 1019 
Q 384 1609 779 1909 
Q 1175 2209 1959 2209 
L 2766 2209 
L 2766 2266 
Q 2766 2663 2505 2880 
Q 2244 3097 1772 3097 
Q 1472 3097 1187 3025 
Q 903 2953 641 2809 
L 641 3341 
Q 956 3463 1253 3523 
Q 1550 3584 1831 3584 
Q 2591 3584 2966 3190 
Q 3341 2797 3341 1997 
z
" transform="scale(0.015625)"/>
      <path id="DejaVuSans-6c" d="M 603 4863 
L 1178 4863 
L 1178 0 
L 603 0 
L 603 4863 
z
" transform="scale(0.015625)"/>
     </defs>
     <use xlink:href="#DejaVuSans-413"/>
     <use xlink:href="#DejaVuSans-440" x="60.986328"/>
     <use xlink:href="#DejaVuSans-430" x="124.462891"/>
     <use xlink:href="#DejaVuSans-444" x="185.742188"/>
     <use xlink:href="#DejaVuSans-438" x="271.240234"/>
     <use xlink:href="#DejaVuSans-43a" x="336.230469"/>
     <use xlink:href="#DejaVuSans-20" x="396.630859"/>
     <use xlink:href="#DejaVuSans-437" x="428.417969"/>
     <use xlink:href="#DejaVuSans-430" x="481.591797"/>
     <use xlink:href="#DejaVuSans-432" x="542.871094"/>
     <use xlink:href="#DejaVuSans-438" x="601.806641"/>
     <use xlink:href="#DejaVuSans-441" x="666.796875"/>
     <use xlink:href="#DejaVuSans-438" x="721.777344"/>
     <use xlink:href="#DejaVuSans-43c" x="786.767578"/>
     <use xlink:href="#DejaVuSans-43e" x="862.207031"/>
     <use xlink:href="#DejaVuSans-441" x="923.388672"/>
     <use xlink:href="#DejaVuSans-442" x="978.369141"/>
     <use xlink:href="#DejaVuSans-438" x="1036.621094"/>
     <use xlink:href="#DejaVuSans-20" x="1101.611328"/>
     <use xlink:href="#DejaVuSans-440" x="1133.398438"/>
     <use xlink:href="#DejaVuSans-430" x="1196.875"/>
     <use xlink:href="#DejaVuSans-437" x="1258.154297"/>
     <use xlink:href="#DejaVuSans-43c" x="1311.328125"/>
     <use xlink:href="#DejaVuSans-435" x="1386.767578"/>
     <use xlink:href="#DejaVuSans-440" x="1448.291016"/>
     <use xlink:href="#DejaVuSans-430" x="1511.767578"/>
     <use xlink:href="#DejaVuSans-20" x="1573.046875"/>
     <use xlink:href="#DejaVuSans-43e" x="1604.833984"/>
     <use xlink:href="#DejaVuSans-442" x="1666.015625"/>
     <use xlink:href="#DejaVuSans-20" x="1724.267578"/>
     <use xlink:href="#DejaVuSans-432" x="1756.054688"/>
     <use xlink:href="#DejaVuSans-440" x="1814.990234"/>
     <use xlink:href="#DejaVuSans-435" x="1878.466797"/>
     <use xlink:href="#DejaVuSans-43c" x="1939.990234"/>
     <use xlink:href="#DejaVuSans-435" x="2015.429688"/>
     <use xlink:href="#DejaVuSans-43d" x="2076.953125"/>
     <use xlink:href="#DejaVuSans-438" x="2142.333984"/>
     <use xlink:href="#DejaVuSans-2e" x="2207.324219"/>
     <use xlink:href="#DejaVuSans-20" x="2239.111328"/>
     <use xlink:href="#DejaVuSans-41c" x="2270.898438"/>
     <use xlink:href="#DejaVuSans-435" x="2357.177734"/>
     <use xlink:href="#DejaVuSans-442" x="2418.701172"/>
     <use xlink:href="#DejaVuSans-43e" x="2476.953125"/>
     <use xlink:href="#DejaVuSans-434" x="2538.134766"/>
     <use xlink:href="#DejaVuSans-20" x="2607.275391"/>
     <use xlink:href="#DejaVuSans-438" x="2639.0625"/>
     <use xlink:href="#DejaVuSans-437" x="2704.052734"/>
     <use xlink:href="#DejaVuSans-43c" x="2757.226562"/>
     <use xlink:href="#DejaVuSans-435" x="2832.666016"/>
     <use xlink:href="#DejaVuSans-440" x="2894.189453"/>
     <use xlink:href="#DejaVuSans-435" x="2957.666016"/>
     <use xlink:href="#DejaVuSans-43d" x="3019.189453"/>
     <use xlink:href="#DejaVuSans-438" x="3084.570312"/>
     <use xlink:href="#DejaVuSans-44f" x="3149.560547"/>
     <use xlink:href="#DejaVuSans-3a" x="3209.716797"/>
     <use xlink:href="#DejaVuSans-20" x="3243.408203"/>
     <use xlink:href="#DejaVuSans-65" x="3275.195312"/>
     <use xlink:href="#DejaVuSans-78" x="3334.96875"/>
     <use xlink:href="#DejaVuSans-74" x="3394.148438"/>
     <use xlink:href="#DejaVuSans-65" x="3433.357422"/>
     <use xlink:href="#DejaVuSans-72" x="3494.880859"/>
     <use xlink:href="#DejaVuSans-6e" x="3534.244141"/>
     <use xlink:href="#DejaVuSans-61" x="3597.623047"/>
     <use xlink:href="#DejaVuSans-6c" x="3658.902344"/>
    </g>
   </g>
   <g id="legend_1">
    <g id="patch_7">
     <path d="M 187 139.26875 
L 312.809375 139.26875 
Q 314.809375 139.26875 314.809375 137.26875 
L 314.809375 93.4 
Q 314.809375 91.4 312.809375 91.4 
L 187 91.4 
Q 185 91.4 185 93.4 
L 185 137.26875 
Q 185 139.26875 187 139.26875 
z
" style="fill: #ffffff; opacity: 0.8; stroke: #cccccc; stroke-linejoin: miter"/>
    </g>
    <g id="line2d_52">
     <path d="M 189 99.498437 
L 199 99.498437 
L 209 99.498437 
" style="fill: none; stroke: #1f77b4; stroke-linecap: square"/>
     <g>
      <use xlink:href="#m89ed500823" x="199" y="99.498437" style="fill: #1f77b4; stroke: #1f77b4"/>
     </g>
    </g>
    <g id="text_29">
     <!-- external_sort_1.txt -->
     <g transform="translate(217 102.998437) scale(0.1 -0.1)">
      <defs>
       <path id="DejaVuSans-5f" d="M 3263 -1063 
L 3263 -1509 
L -63 -1509 
L -63 -1063 
L 3263 -1063 
z
" transform="scale(0.015625)"/>
       <path id="DejaVuSans-73" d="M 2834 3397 
L 2834 2853 
Q 2591 2978 2328 3040 
Q 2066 3103 1784 3103 
Q 1356 3103 1142 2972 
Q 928 2841 928 2578 
Q 928 2378 1081 2264 
Q 1234 2150 1697 2047 
L 1894 2003 
Q 2506 1872 2764 1633 
Q 3022 1394 3022 966 
Q 3022 478 2636 193 
Q 2250 -91 1575 -91 
Q 1294 -91 989 -36 
Q 684 19 347 128 
L 347 722 
Q 666 556 975 473 
Q 1284 391 1588 391 
Q 1994 391 2212 530 
Q 2431 669 2431 922 
Q 2431 1156 2273 1281 
Q 2116 1406 1581 1522 
L 1381 1569 
Q 847 1681 609 1914 
Q 372 2147 372 2553 
Q 372 3047 722 3315 
Q 1072 3584 1716 3584 
Q 2034 3584 2315 3537 
Q 2597 3491 2834 3397 
z
" transform="scale(0.015625)"/>
       <path id="DejaVuSans-6f" d="M 1959 3097 
Q 1497 3097 1228 2736 
Q 959 2375 959 1747 
Q 959 1119 1226 758 
Q 1494 397 1959 397 
Q 2419 397 2687 759 
Q 2956 1122 2956 1747 
Q 2956 2369 2687 2733 
Q 2419 3097 1959 3097 
z
M 1959 3584 
Q 2709 3584 3137 3096 
Q 3566 2609 3566 1747 
Q 3566 888 3137 398 
Q 2709 -91 1959 -91 
Q 1206 -91 779 398 
Q 353 888 353 1747 
Q 353 2609 779 3096 
Q 1206 3584 1959 3584 
z
" transform="scale(0.015625)"/>
      </defs>
      <use xlink:href="#DejaVuSans-65"/>
      <use xlink:href="#DejaVuSans-78" x="59.773438"/>
      <use xlink:href="#DejaVuSans-74" x="118.953125"/>
      <use xlink:href="#DejaVuSans-65" x="158.162109"/>
      <use xlink:href="#DejaVuSans-72" x="219.685547"/>
      <use xlink:href="#DejaVuSans-6e" x="259.048828"/>
      <use xlink:href="#DejaVuSans-61" x="322.427734"/>
      <use xlink:href="#DejaVuSans-6c" x="383.707031"/>
      <use xlink:href="#DejaVuSans-5f" x="411.490234"/>
      <use xlink:href="#DejaVuSans-73" x="461.490234"/>
      <use xlink:href="#DejaVuSans-6f" x="513.589844"/>
      <use xlink:href="#DejaVuSans-72" x="574.771484"/>
      <use xlink:href="#DejaVuSans-74" x="615.884766"/>
      <use xlink:href="#DejaVuSans-5f" x="655.09375"/>
      <use xlink:href="#DejaVuSans-31" x="705.09375"/>
      <use xlink:href="#DejaVuSans-2e" x="768.716797"/>
      <use xlink:href="#DejaVuSans-74" x="800.503906"/>
      <use xlink:href="#DejaVuSans-78" x="839.712891"/>
      <use xlink:href="#DejaVuSans-74" x="898.892578"/>
     </g>
    </g>
    <g id="line2d_53">
     <path d="M 189 114.454687 
L 199 114.454687 
L 209 114.454687 
" style="fill: none; stroke: #ff7f0e; stroke-linecap: square"/>
     <g>
      <use xlink:href="#m8266abb59a" x="199" y="114.454687" style="fill: #ff7f0e; stroke: #ff7f0e"/>
     </g>
    </g>
    <g id="text_30">
     <!-- external_sort_3.txt -->
     <g transform="translate(217 117.954687) scale(0.1 -0.1)">
      <use xlink:href="#DejaVuSans-65"/>
      <use xlink:href="#DejaVuSans-78" x="59.773438"/>
      <use xlink:href="#DejaVuSans-74" x="118.953125"/>
      <use xlink:href="#DejaVuSans-65" x="158.162109"/>
      <use xlink:href="#DejaVuSans-72" x="219.685547"/>
      <use xlink:href="#DejaVuSans-6e" x="259.048828"/>
      <use xlink:href="#DejaVuSans-61" x="322.427734"/>
      <use xlink:href="#DejaVuSans-6c" x="383.707031"/>
      <use xlink:href="#DejaVuSans-5f" x="411.490234"/>
      <use xlink:href="#DejaVuSans-73" x="461.490234"/>
      <use xlink:href="#DejaVuSans-6f" x="513.589844"/>
      <use xlink:href="#DejaVuSans-72" x="574.771484"/>
      <use xlink:href="#DejaVuSans-74" x="615.884766"/>
      <use xlink:href="#DejaVuSans-5f" x="655.09375"/>
      <use xlink:href="#DejaVuSans-33" x="705.09375"/>
      <use xlink:href="#DejaVuSans-2e" x="768.716797"/>
      <use xlink:href="#DejaVuSans-74" x="800.503906"/>
      <use xlink:href="#DejaVuSans-78" x="839.712891"/>
      <use xlink:href="#DejaVuSans-74" x="898.892578"/>
     </g>
    </g>
    <g id="line2d_54">
     <path d="M 189 129.410937 
L 199 129.410937 
L 209 129.410937 
" style="fill: none; stroke: #2ca02c; stroke-linecap: square"/>
     <g>
      <use xlink:href="#m2309303fb5" x="199" y="129.410937" style="fill: #2ca02c; stroke: #2ca02c"/>
     </g>
    </g>
    <g id="text_31">
     <!-- external_sort_2.txt -->
     <g transform="translate(217 132.910937) scale(0.1 -0.1)">
      <use xlink:href="#DejaVuSans-65"/>
      <use xlink:href="#DejaVuSans-78" x="59.773438"/>
      <use xlink:href="#DejaVuSans-74" x="118.953125"/>
      <use xlink:href="#DejaVuSans-65" x="158.162109"/>
      <use xlink:href="#DejaVuSans-72" x="219.685547"/>
      <use xlink:href="#DejaVuSans-6e" x="259.048828"/>
      <use xlink:href="#DejaVuSans-61" x="322.427734"/>
      <use xlink:href="#DejaVuSans-6c" x="383.707031"/>
      <use xlink:href="#DejaVuSans-5f" x="411.490234"/>
      <use xlink:href="#DejaVuSans-73" x="461.490234"/>
      <use xlink:href="#DejaVuSans-6f" x="513.589844"/>
      <use xlink:href="#DejaVuSans-72" x="574.771484"/>
      <use xlink:href="#DejaVuSans-74" x="615.884766"/>
      <use xlink:href="#DejaVuSans-5f" x="655.09375"/>
      <use xlink:href="#DejaVuSans-32" x="705.09375"/>
      <use xlink:href="#DejaVuSans-2e" x="768.716797"/>
      <use xlink:href="#DejaVuSans-74" x="800.503906"/>
      <use xlink:href="#DejaVuSans-78" x="839.712891"/>
      <use xlink:href="#DejaVuSans-74" x="898.892578"/>
     </g>
    </g>
   </g>
  </g>
 </g>
 <defs>
  <clipPath id="p4609d179d8">
   <rect x="180" y="86.4" width="1116" height="554.4"/>
  </clipPath>
 </defs>
</svg>
